<mxfile host="app.diagrams.net" modified="2024-05-30T05:15:59.467Z" agent="Mozilla/5.0 (X11; Linux x86_64; rv:126.0) Gecko/20100101 Firefox/126.0" etag="HqsLKmAIsJBJOvXCh0UA" version="24.3.1" type="device">
  <diagram name="Страница — 1" id="XV_xHioZMFPKSvAhlXhR">
    <mxGraphModel dx="2086" dy="1249" grid="1" gridSize="10" guides="1" tooltips="1" connect="1" arrows="1" fold="1" page="1" pageScale="1" pageWidth="1600" pageHeight="900" math="0" shadow="0">
      <root>
        <mxCell id="0" />
        <mxCell id="1" parent="0" />
        <mxCell id="8Xvv_TeHMW7kyiJeCJ1V-1" value="" style="rounded=0;whiteSpace=wrap;html=1;" vertex="1" parent="1">
          <mxGeometry x="90" y="80" width="230" height="60" as="geometry" />
        </mxCell>
        <mxCell id="8Xvv_TeHMW7kyiJeCJ1V-2" value="&lt;font style=&quot;font-size: 23px;&quot;&gt;Имя пользователя&lt;br&gt;&lt;/font&gt;" style="text;html=1;align=center;verticalAlign=middle;resizable=0;points=[];autosize=1;strokeColor=none;fillColor=none;" vertex="1" parent="1">
          <mxGeometry x="80" y="20" width="250" height="40" as="geometry" />
        </mxCell>
        <mxCell id="8Xvv_TeHMW7kyiJeCJ1V-3" value="" style="rounded=0;whiteSpace=wrap;html=1;" vertex="1" parent="1">
          <mxGeometry x="1350" y="80" width="120" height="60" as="geometry" />
        </mxCell>
        <mxCell id="8Xvv_TeHMW7kyiJeCJ1V-4" value="&lt;font style=&quot;font-size: 24px;&quot;&gt;Язык&lt;/font&gt;" style="text;html=1;align=center;verticalAlign=middle;whiteSpace=wrap;rounded=0;" vertex="1" parent="1">
          <mxGeometry x="1380" y="20" width="60" height="30" as="geometry" />
        </mxCell>
        <mxCell id="8Xvv_TeHMW7kyiJeCJ1V-5" value="" style="rounded=0;whiteSpace=wrap;html=1;" vertex="1" parent="1">
          <mxGeometry x="490" y="270" width="630" height="370" as="geometry" />
        </mxCell>
        <mxCell id="8Xvv_TeHMW7kyiJeCJ1V-6" value="" style="rounded=0;whiteSpace=wrap;html=1;" vertex="1" parent="1">
          <mxGeometry x="600" y="360" width="370" height="50" as="geometry" />
        </mxCell>
        <mxCell id="8Xvv_TeHMW7kyiJeCJ1V-7" value="" style="rounded=0;whiteSpace=wrap;html=1;" vertex="1" parent="1">
          <mxGeometry x="600" y="460" width="380" height="60" as="geometry" />
        </mxCell>
        <mxCell id="8Xvv_TeHMW7kyiJeCJ1V-9" value="" style="rounded=0;whiteSpace=wrap;html=1;" vertex="1" parent="1">
          <mxGeometry x="725" y="550" width="120" height="60" as="geometry" />
        </mxCell>
        <mxCell id="8Xvv_TeHMW7kyiJeCJ1V-10" value="Введите логин:" style="text;html=1;align=center;verticalAlign=middle;whiteSpace=wrap;rounded=0;fontSize=21;" vertex="1" parent="1">
          <mxGeometry x="580" y="330" width="220" height="30" as="geometry" />
        </mxCell>
        <mxCell id="8Xvv_TeHMW7kyiJeCJ1V-11" value="Введите пароль" style="text;html=1;align=center;verticalAlign=middle;whiteSpace=wrap;rounded=0;fontSize=20;" vertex="1" parent="1">
          <mxGeometry x="560" y="430" width="230" height="30" as="geometry" />
        </mxCell>
        <mxCell id="8Xvv_TeHMW7kyiJeCJ1V-12" value="Войти" style="text;html=1;align=center;verticalAlign=middle;whiteSpace=wrap;rounded=0;" vertex="1" parent="1">
          <mxGeometry x="760" y="560" width="60" height="30" as="geometry" />
        </mxCell>
        <mxCell id="8Xvv_TeHMW7kyiJeCJ1V-13" value="&lt;font style=&quot;font-size: 26px;&quot;&gt;Авторизация&lt;/font&gt;" style="text;html=1;align=center;verticalAlign=middle;whiteSpace=wrap;rounded=0;" vertex="1" parent="1">
          <mxGeometry x="760" y="190" width="60" height="30" as="geometry" />
        </mxCell>
        <mxCell id="8Xvv_TeHMW7kyiJeCJ1V-14" value="Нет аккаунта?" style="text;html=1;align=center;verticalAlign=middle;whiteSpace=wrap;rounded=0;fillColor=#fff2cc;strokeColor=#d6b656;" vertex="1" parent="1">
          <mxGeometry x="920" y="560" width="130" height="30" as="geometry" />
        </mxCell>
      </root>
    </mxGraphModel>
  </diagram>
</mxfile>
